<svg xmlns="http://www.w3.org/2000/svg" viewBox="0 0 100 100">
  <defs>
    <style>
      .fire-truck { fill: #dc3545; }
      .window { fill: #1f6feb; }
      .wheel { fill: #2d2d2d; }
      .light { fill: #ffc107; }
      .ladder { fill: #6c757d; }
    </style>
  </defs>
  
  <!-- Feuerwehr Fahrzeug -->
  <rect class="fire-truck" x="10" y="35" width="80" height="35" rx="3"/>
  
  <!-- Kabine -->
  <rect class="fire-truck" x="60" y="25" width="25" height="10"/>
  
  <!-- Fenster -->
  <rect class="window" x="65" y="27" width="8" height="6" rx="1"/>
  <rect class="window" x="75" y="27" width="8" height="6" rx="1"/>
  
  <!-- Blaulicht -->
  <circle class="light" cx="45" cy="30" r="3"/>
  <circle class="light" cx="55" cy="30" r="3"/>
  
  <!-- Räder -->
  <circle class="wheel" cx="25" cy="70" r="8"/>
  <circle class="wheel" cx="75" cy="70" r="8"/>
  
  <!-- Felgen -->
  <circle fill="#555" cx="25" cy="70" r="4"/>
  <circle fill="#555" cx="75" cy="70" r="4"/>
  
  <!-- Leiter -->
  <rect class="ladder" x="15" y="20" width="3" height="15"/>
  <rect class="ladder" x="22" y="20" width="3" height="15"/>
  <rect class="ladder" x="15" y="23" width="10" height="1.5"/>
  <rect class="ladder" x="15" y="27" width="10" height="1.5"/>
  <rect class="ladder" x="15" y="31" width="10" height="1.5"/>
  
  <!-- Türen/Details -->
  <line x1="50" y1="45" x2="50" y2="65" stroke="#8b0000" stroke-width="2"/>
  <circle fill="#ffd700" cx="47" cy="55" r="1.5"/>
</svg>


